<?xml version="1.0" encoding="utf-8"?>
<!-- Generator: Adobe Illustrator 13.0.2, SVG Export Plug-In . SVG Version: 6.00 Build 14948)  -->
<!DOCTYPE svg PUBLIC "-//W3C//DTD SVG 1.1//EN" "http://www.w3.org/Graphics/SVG/1.1/DTD/svg11.dtd">
<svg version="1.1" xmlns="http://www.w3.org/2000/svg" xmlns:xlink="http://www.w3.org/1999/xlink" x="0px" y="0px"
	 width="204.095px" height="204.095px" viewBox="-415.466 526.968 204.095 204.095"
	 enable-background="new -415.466 526.968 204.095 204.095" xml:space="preserve">
<g id="Layer_1">
	<path fill="none" stroke="#231F20" d="M-250.162,683.363c-14.521,15.059-35.433,23.952-56.682,23.952
		c-44.802,0-78.587-33.293-78.587-77.443c0-45.127,32.801-79.156,76.299-79.156c18.405,0,37.585,6.041,51.11,18.77
		c0,0,7.134,6.06,10.654,13.603c4.829,8.623,7.671,19.042,7.671,31.344c0,20.074-14.637,40.401-26.47,45.235
		c-6.955,2.405-7.548-1.125-7.548-1.125c-0.471-3.947,0.537-7.776,1.757-12.655l17.655-64.418c0.161-0.698,0.367-1.691,0.375-2.188
		c0.031-2.062-2.254-2.594-3.531-2.594c-0.347,0-1.328-0.055-1.76-0.002h-13.309l-2.658,8.633
		c-7.918-18.739-24.885-19.568-35.398-19.568c-18.25,0-34.467,7.808-47.25,24.417c-11.263,14.634-16.688,31.489-16.688,50.859
		c0,27.447,16.993,47.634,42.515,47.947c15.401,0.189,29.367-8.008,35.58-14.578c2.584,6.816,8.807,10.381,16.464,10.381
		c25.164,0,66.341-27.452,66.341-77.779c0-46.896-44.607-81.497-95.508-81.497c-56.618,0-104.086,45.465-104.086,103.229
		c0,58.906,46.896,103.802,105.802,103.802c32.599,0,60.052-15.156,76.636-35.744l5.089-5.094l-15.811-16.525L-250.162,683.363z
		 M-324.571,664.188c-13.725,0-22.875-10.866-22.875-26.308c0-18.302,16.014-46.896,39.461-46.896
		c12.011,0,22.304,12.583,22.304,26.308C-285.682,635.592-302.267,664.188-324.571,664.188z"/>
</g>
<g id="guide">
		<path fill="none" stroke="#000000" d="M-242.815,679.786c0,0-23.829,28.15-56.872,30.376
			c-33.043,2.224-66.88-14.285-81.812-47.329c-11-34.334-9.999-65.667,22-97.334c24-20.899,60.333-17.332,71.333-14.666
			s35.332,10.666,46.666,37.333s-2.534,56.537-6.666,60.667c-4.129,4.13-11.213,12.745-22.334,14.333c0,0-9.836,1.167-3.999-16.667
			c6-18.333,9.54-45.666-7.667-67.333c-9-11.333-23.381-11.877-31.253-11.278c-10.225,0.777-27.546,3.75-44.046,26.5
			s-16.368,58.445-10.035,69.445c10.727,18.632,33.667,32.334,62.667,14.001"/>
		<path fill="none" stroke="#000000" d="M-261.166,643.166"/>
</g>
</svg>
