<?xml version="1.0" encoding="utf-8"?>
<!-- Generator: Adobe Illustrator 13.0.2, SVG Export Plug-In . SVG Version: 6.00 Build 14948)  -->
<!DOCTYPE svg PUBLIC "-//W3C//DTD SVG 1.1//EN" "http://www.w3.org/Graphics/SVG/1.1/DTD/svg11.dtd">
<svg version="1.1" xmlns="http://www.w3.org/2000/svg" xmlns:xlink="http://www.w3.org/1999/xlink" x="0px" y="0px" width="510px"
	 height="510px" viewBox="-5.023 595.584 510 510" enable-background="new -5.023 595.584 510 510" xml:space="preserve">
<g id="atsign">
	<path fill="#FFFFFF" stroke="#000000" d="M192.05,774.647c-16.958,21.053-45.029,36.551-78.363,36.551
		C53.454,811.198,5.5,765.29,5.5,705.057C5.5,645.991,54.039,599.5,111.933,599.5c52.048,0,97.662,35.381,97.662,83.334
		c0,51.462-42.105,79.533-67.837,79.533c-9.941,0-17.544-5.849-18.128-16.959h-0.584c-8.188,8.771-20.467,16.959-34.503,16.959
		c-22.807,0-39.181-19.883-39.181-42.689c0-35.674,23.392-73.686,62.573-73.686c12.866,0,25.146,6.434,32.749,21.054l4.68-15.206
		h19.881l-19.298,70.762c-2.339,9.356-3.508,20.468,3.509,20.468c18.714,0,36.843-27.486,36.843-52.632
		c0-45.614-35.673-72.516-78.364-72.516c-49.707,0-85.381,39.183-85.381,88.305c0,49.708,38.598,86.552,87.721,86.552
		c25.73,0,50.293-11.696,66.082-29.825L192.05,774.647z M72.751,714.413c0,15.79,9.357,26.901,23.392,26.901
		c22.807,0,39.766-29.24,39.766-47.954c0-14.034-10.526-26.9-22.807-26.9C89.126,666.46,72.751,695.699,72.751,714.413z"/>
</g>
<g id="guide">
	<path fill="none" stroke="#000000" d="M179.996,768.377c0,0-24.366,24.691-58.154,26.967c-33.788,2.273-73.75-14.62-89.018-48.409
		c-15.109-33.433-14.945-71.149,15.269-104.288c33.136-36.343,77.973-26.966,83.82-25.666c5.848,1.3,41.585,7.148,55.882,46.784
		c14.294,39.635-7.148,66.276-11.373,70.5c-4.223,4.223-11.695,9.421-23.067,11.045c-11.37,1.625-7.147-13.645-17.543-13.969
		c-12.357-0.387-15.258,2.735-20.143,6.172c-8.771,6.173-26.64,8.122-34.113,1.949c-7.473-6.172-19.315-23.542-5.848-48.083
		c14.62-26.64,23.392-24.69,33.139-27.29c3.453-0.921,18.518,1.3,24.691,12.021c6.471,11.242,5.848,20.144,3.248,28.916
		c-2.598,8.771-5.198,16.243-8.122,20.468"/>
</g>
</svg>
