<?xml version="1.0" encoding="utf-8"?>
<!-- Generator: Adobe Illustrator 13.0.2, SVG Export Plug-In . SVG Version: 6.00 Build 14948)  -->
<!DOCTYPE svg PUBLIC "-//W3C//DTD SVG 1.1//EN" "http://www.w3.org/Graphics/SVG/1.1/DTD/svg11.dtd">
<svg version="1.1" xmlns="http://www.w3.org/2000/svg" xmlns:xlink="http://www.w3.org/1999/xlink" x="0px" y="0px" width="203.5px"
	 height="210.5px" viewBox="297 -1 203.5 210.5" enable-background="new 297 -1 203.5 210.5" xml:space="preserve">
<g id="atsign">
	<path fill="#FFFFFF" stroke="#000000" d="M177.191,766.33c-16.153,20.053-42.891,34.814-74.642,34.814
		c-57.374,0-103.05-43.728-103.05-101.101c0-56.261,46.233-100.544,101.379-100.544c49.576,0,93.023,33.7,93.023,79.377
		c0,49.018-40.105,75.756-64.615,75.756c-9.469,0-16.711-5.57-17.268-16.153h-0.557c-7.799,8.354-19.496,16.153-32.865,16.153
		c-21.724,0-37.32-18.938-37.32-40.662c0-33.979,22.281-70.187,59.602-70.187c12.255,0,23.952,6.128,31.193,20.054l4.457-14.483
		h18.938l-18.382,67.401c-2.229,8.912-3.342,19.496,3.342,19.496c17.825,0,35.094-26.182,35.094-50.133
		c0-43.448-33.979-69.072-74.643-69.072c-47.347,0-81.326,37.322-81.326,84.111c0,47.348,36.765,82.441,83.555,82.441
		c24.509,0,47.905-11.141,62.943-28.408L177.191,766.33z M63.558,708.956c0,15.04,8.913,25.624,22.281,25.624
		c21.724,0,37.877-27.852,37.877-45.677c0-13.368-10.026-25.623-21.724-25.623C79.155,663.28,63.558,691.131,63.558,708.956z"/>
</g>
<g id="guide">
	<path fill="none" stroke="#000000" d="M165.709,760.357c0,0-23.209,23.519-55.393,25.686
		c-32.184,2.166-70.247-13.926-84.791-46.109c-14.392-31.846-14.235-67.771,14.544-99.336c31.562-34.617,74.27-25.686,79.84-24.447
		s39.61,6.809,53.228,44.562c13.616,37.753-6.809,63.129-10.832,67.152c-4.022,4.021-11.14,8.973-21.972,10.521
		c-10.83,1.548-6.808-12.997-16.71-13.306c-11.771-0.368-14.533,2.605-19.187,5.879c-8.355,5.88-25.375,7.736-32.493,1.856
		c-7.118-5.879-18.398-22.424-5.57-45.8c13.926-25.375,22.281-23.518,31.565-25.994c3.289-0.877,17.639,1.238,23.519,11.45
		c6.164,10.708,5.57,19.187,3.094,27.542c-2.475,8.355-4.951,15.473-7.736,19.496"/>
</g>
</svg>
