<?xml version="1.0" encoding="utf-8"?>
<!-- Generator: Adobe Illustrator 13.0.2, SVG Export Plug-In . SVG Version: 6.00 Build 14948)  -->
<!DOCTYPE svg PUBLIC "-//W3C//DTD SVG 1.1//EN" "http://www.w3.org/Graphics/SVG/1.1/DTD/svg11.dtd">
<svg version="1.1" xmlns="http://www.w3.org/2000/svg" xmlns:xlink="http://www.w3.org/1999/xlink" x="0px" y="0px" width="510px"
	 height="510px" viewBox="-5.023 595.584 510 510" enable-background="new -5.023 595.584 510 510" xml:space="preserve">
<g id="atsign">
	<path fill="#FFFFFF" stroke="#000000" d="M178.937,770.786c-16.584,20.588-44.036,35.744-76.635,35.744
		C43.396,806.53-3.5,761.635-3.5,702.729c0-57.764,47.468-103.229,104.086-103.229c50.901,0,95.508,34.601,95.508,81.497
		c0,50.327-41.177,77.779-66.341,77.779c-9.722,0-17.157-5.72-17.729-16.585h-0.572c-8.007,8.578-20.016,16.585-33.743,16.585
		c-22.304,0-38.317-19.444-38.317-41.748c0-34.888,22.876-72.062,61.194-72.062c12.583,0,24.592,6.292,32.026,20.59l4.577-14.871
		h19.443l-18.873,69.202c-2.288,9.149-3.431,20.017,3.431,20.017c18.301,0,36.03-26.881,36.03-51.472
		c0-44.608-34.887-70.917-76.636-70.917c-48.611,0-83.499,38.318-83.499,86.357c0,48.612,37.747,84.644,85.787,84.644
		c25.163,0,49.185-11.438,64.625-29.167L178.937,770.786z M62.269,711.88c0,15.441,9.151,26.308,22.876,26.308
		c22.304,0,38.889-28.596,38.889-46.896c0-13.725-10.293-26.308-22.304-26.308C78.283,664.983,62.269,693.578,62.269,711.88z"/>
</g>
<g id="guide">
	<path fill="none" stroke="#000000" d="M167.148,764.653c0,0-23.829,24.147-56.872,26.372
		c-33.043,2.224-72.124-14.298-87.056-47.342c-14.776-32.695-14.616-69.58,14.932-101.988
		c32.405-35.542,76.253-26.371,81.972-25.101c5.719,1.271,40.668,6.991,54.649,45.753c13.979,38.761-6.991,64.815-11.122,68.945
		c-4.129,4.13-11.437,9.214-22.558,10.802c-11.12,1.589-6.99-13.344-17.156-13.661c-12.085-0.378-14.921,2.676-19.699,6.036
		c-8.578,6.037-26.053,7.943-33.36,1.906c-7.308-6.036-18.889-23.022-5.719-47.022c14.298-26.053,22.875-24.146,32.408-26.688
		c3.377-0.9,18.11,1.271,24.147,11.755c6.329,10.995,5.719,19.7,3.176,28.278c-2.541,8.578-5.083,15.886-7.943,20.017"/>
</g>
</svg>
