<?xml version="1.0" encoding="UTF-8" standalone="no"?>
<!-- Created with Inkscape (http://www.inkscape.org/) -->

<svg
   xmlns:dc="http://purl.org/dc/elements/1.1/"
   xmlns:cc="http://creativecommons.org/ns#"
   xmlns:rdf="http://www.w3.org/1999/02/22-rdf-syntax-ns#"
   xmlns:svg="http://www.w3.org/2000/svg"
   xmlns="http://www.w3.org/2000/svg"
   xmlns:sodipodi="http://sodipodi.sourceforge.net/DTD/sodipodi-0.dtd"
   xmlns:inkscape="http://www.inkscape.org/namespaces/inkscape"
   width="744.09448819"
   height="1052.3622047"
   id="svg2"
   version="1.1"
   inkscape:version="0.48.2 r9819"
   sodipodi:docname="atsign.svg">
  <defs
     id="defs4" />
  <sodipodi:namedview
     id="base"
     pagecolor="#ffffff"
     bordercolor="#666666"
     borderopacity="1.0"
     inkscape:pageopacity="0.0"
     inkscape:pageshadow="2"
     inkscape:zoom="0.4251953"
     inkscape:cx="400"
     inkscape:cy="562.85714"
     inkscape:document-units="px"
     inkscape:current-layer="layer1"
     showgrid="false"
     inkscape:window-width="1176"
     inkscape:window-height="840"
     inkscape:window-x="0"
     inkscape:window-y="0"
     inkscape:window-maximized="0"
     showguides="true"
     inkscape:guide-bbox="true" />
  <metadata
     id="metadata7">
    <rdf:RDF>
      <cc:Work
         rdf:about="">
        <dc:format>image/svg+xml</dc:format>
        <dc:type
           rdf:resource="http://purl.org/dc/dcmitype/StillImage" />
        <dc:title />
      </cc:Work>
    </rdf:RDF>
  </metadata>
  <g
     inkscape:label="Layer 1"
     inkscape:groupmode="layer"
     id="layer1">
    <path
       style="fill:#ffffff;stroke:#000000;stroke-width:1px;stroke-linecap:butt;stroke-linejoin:miter;stroke-opacity:1"
       d="m 291.04271,252.72964 48.21314,0.58797 c 0,0 -22.90672,53.03081 -71.73174,72.31971 -47.62517,18.81488 -120.99349,17.13967 -163.45429,0 C 54.430969,305.60017 19.402839,266.25285 14.699119,206.86837 9.9953992,147.4839 36.453829,78.104023 67.028009,56.937273 97.602199,35.770533 146.99127,9.9000735 199.90812,18.131583 c 52.91686,8.23151 108.77355,32.33808 122.88471,94.662377 14.11116,62.3243 -18.55437,114.67011 -37.62977,130.52825 -19.20123,15.96275 -30.57418,25.2825 -71.73174,27.04639 -41.15755,1.76389 -28.81029,-14.69913 -28.81029,-14.69913 0,0 -24.10657,18.22692 -53.50482,15.2871 -29.39826,-2.93983 -44.695121,-41.07928 -47.037201,-72.31972 -2.83509,-37.81648 7.05558,-74.08359 35.865871,-96.42626 29.80106,-23.111007 44.09737,-20.578777 59.38447,-19.402847 13.68575,1.05275 21.75471,7.64354 24.69453,12.93523 2.93983,5.291687 6.46762,-7.05558 6.46762,-7.05558 l 52.91685,-1.17593 -26.45842,136.995857 c 0,0 48.21313,-25.28249 49.38906,-69.96784 1.17593,-44.68535 -9.46598,-61.630367 -49.97703,-84.079007 -40.46346,-22.42227 -106.86924,-6.89733 -138.171801,15.87506 -28.63036,20.828377 -45.86127,82.315107 -38.80568,121.120807 7.02179,38.61984 33.28987,76.19545 75.847481,83.49104 41.15756,7.05558 54.0928,9.40744 101.71796,-0.58797 45.69133,-9.58955 54.09279,-37.62977 54.09279,-37.62977 z"
       id="path3069"
       inkscape:connector-curvature="0"
       sodipodi:nodetypes="ccsssssssscssssscccssssssc" />
    <path
       style="fill:#ffffff;stroke:#000000;stroke-width:1px;stroke-linecap:butt;stroke-linejoin:miter;stroke-opacity:1"
       d="m 168.74598,123.37733 c 0,0 37.28788,9.11255 16.46302,61.73633 -16.99516,42.94623 -28.81029,41.74552 -44.68535,40.56959 -15.87506,-1.17593 -18.06337,-45.30332 -11.7593,-62.32429 5.87965,-15.87506 14.11116,-39.39366 39.98163,-39.98163 z"
       id="path3073"
       inkscape:connector-curvature="0"
       sodipodi:nodetypes="csssc" />
    <path
       style="fill:none;stroke:#000000;stroke-width:1px;stroke-linecap:butt;stroke-linejoin:miter;stroke-opacity:1"
       d="m 295.15847,257.43337 c 0,0 -12.54525,44.72403 -119.35691,44.09738 C 59.759739,300.84996 56.195379,218.12036 53.504819,203.34058 49.723339,182.5682 54.980949,100.24554 105.24575,75.752163 c 58.15036,-28.33591 88.24158,-23.15818 108.77354,-18.81488 30.57418,6.46761 69.17996,29.76566 75.84749,67.028007 6.68797,37.37656 0.29111,86.61331 -45.27331,102.30592 -36.8325,12.68531 -103.13876,10.99961 -114.65319,-0.58797 -16.99057,-17.09851 -11.00498,-64.29823 -2.35186,-77.02341 9.99541,-14.69913 17.63895,-29.98622 38.80569,-29.39826 21.16675,0.58797 31.93544,22.672 29.98622,37.62977 -1.90552,14.62245 -8.98349,39.43332 -13.52319,46.44924 -6.46761,9.99541 -14.69913,23.51861 -14.69913,23.51861"
       id="guide"
       inkscape:connector-curvature="0"
       sodipodi:nodetypes="csssssssssssc"
       inkscape:label="#path3075" />
  </g>
</svg>
